:SAMPLES-PER-SECOND 30
:FRAME-RANGE 1-3535
:FULLY-SPECIFIED
:DEGREES
2320
root  30.8171 28.6976 25.9026 -2.28235 46.1517 -1.03374
RightUpLeg  -54.0175 -0.907781 -11.0907
RightLeg  81.2731 0.035005 -2.1702
RightFoot  -22.8412 1.42378 15.5998
RightToes  1.22775e-009 1.2921e-014 -6.02303e-014
Spine  38.2929 0.423079 23.985
Spine1  4.91205 8.11983 1.39732
HEad  -8.53903 -14.35 -15.4872
LeftShoulder1  0.178474 2.53321 -11.1534
LeftArm  -11.8232 41.4493 8.78122
LeftForeArm  -16.7055 -22.6424 -5.85837
LeftHand  0.0288254 2.22709 -1.53955
RightShoulder  10.6188 26.2775 29.4143
RightArm  -42.8001 19.9903 2.45253
RightForeArm  10.9053 6.0751 6.60736
RightHand  -0.122667 2.61016 -1.98852
LeftUpLeg  -58.7499 6.87589 -4.33746
LeftLeg  103.48 -0.229545 -0.179978
LeftFoot  -0.356419 -0.0258679 0.291488
LeftToes  2.52163e-011 5.65494e-011 -1.09494e-012
2321
root  32.7596 28.868 26.7254 1.26331 46.3572 3.16313
RightUpLeg  -50.6793 -0.0632405 -16.3844
RightLeg  82.7865 0.140376 -1.64163
RightFoot  -27.3856 2.38792 18.1355
RightToes  1.22775e-009 1.2921e-014 -6.02303e-014
Spine  39.2673 0.821675 21.5792
Spine1  4.83207 7.91369 1.62401
HEad  -9.78131 -14.7821 -15.6466
LeftShoulder1  0.199106 2.46158 -11.9455
LeftArm  -7.99504 43.6779 6.74857
LeftForeArm  -16.5159 -22.427 -5.90981
LeftHand  0.0716553 1.35622 -2.31123
RightShoulder  10.8464 28.3648 27.6887
RightArm  -43.0061 22.279 0.191341
RightForeArm  13.3862 7.60824 7.05384
RightHand  -0.187576 3.03186 -2.81471
LeftUpLeg  -62.7934 6.40377 -3.67858
LeftLeg  94.5224 -0.0271662 -2.11329
LeftFoot  -2.53526 0.142316 -1.65032
LeftToes  2.52163e-011 5.65494e-011 -1.09494e-012
2322
root  34.6157 29.1728 27.3781 5.07513 46.3232 6.63126
RightUpLeg  -47.7464 0.553018 -20.9148
RightLeg  82.5975 0.12952 -1.65184
RightFoot  -30.3148 3.21204 20.2742
RightToes  1.22775e-009 1.2921e-014 -6.02303e-014
Spine  39.8657 1.02926 19.6708
Spine1  4.49865 7.87303 0.673409
HEad  -10.5471 -15.6345 -15.2872
LeftShoulder1  0.206551 2.4947 -13.448
LeftArm  -12.0497 43.2609 0.737673
LeftForeArm  -15.8795 -20.0401 -6.64717
LeftHand  0.0552937 2.12434 -2.43153
RightShoulder  10.5676 29.3403 25.7358
RightArm  -42.9009 25.5254 0.385847
RightForeArm  18.6972 7.57973 7.01305
RightHand  -0.0606899 3.81724 -1.027
LeftUpLeg  -64.9678 6.09944 -2.30285
LeftLeg  82.9968 -0.430221 -1.85696
LeftFoot  -3.64114 0.215831 -2.88206
LeftToes  2.52163e-011 5.65494e-011 -1.09494e-012
2323
root  36.4711 29.4865 27.965 9.25421 46.1376 9.83842
RightUpLeg  -45.1475 0.741766 -25.2493
RightLeg  81.5971 0.121466 -1.41772
RightFoot  -32.5204 4.08126 22.7548
RightToes  1.22775e-009 1.2921e-014 -6.02303e-014
Spine  39.6509 1.29281 17.6322
Spine1  4.49592 7.89552 -0.998503
HEad  -11.1866 -16.9226 -14.1372
LeftShoulder1  0.267598 2.30318 -15.4413
LeftArm  -17.74 41.2531 -6.54522
LeftForeArm  -18.4115 -18.3434 -7.43917
LeftHand  0.0634406 2.53205 -3.37952
RightShoulder  10.1681 29.9629 23.8469
RightArm  -36.9229 26.0716 2.59756
RightForeArm  15.5816 11.4429 7.99383
RightHand  -0.0263314 3.83582 -0.593919
LeftUpLeg  -64.9522 4.78797 -0.216434
LeftLeg  70.9224 -0.911652 -2.04739
LeftFoot  -3.72115 0.198838 -2.65001
LeftToes  2.52163e-011 5.65494e-011 -1.09494e-012
2324
root  38.4478 29.682 28.4683 11.6429 45.0235 11.8089
RightUpLeg  -42.5494 1.35242 -29.4606
RightLeg  80.9911 0.403994 1.02429
RightFoot  -33.1487 4.87376 26.0738
RightToes  1.22775e-009 1.2921e-014 -6.02303e-014
Spine  39.3175 1.54824 15.862
Spine1  5.53461 7.97923 -2.78506
HEad  -12.5775 -18.0417 -12.1863
LeftShoulder1  0.410074 1.79865 -17.36
LeftArm  -20.8415 38.3226 -14.3855
LeftForeArm  -15.0174 -16.6537 -8.253
LeftHand  0.0683124 2.28609 -3.09572
RightShoulder  10.6026 30.9889 24.1835
RightArm  -31.5752 26.5496 2.63033
RightForeArm  14.0632 13.8125 7.90711
RightHand  0.0504688 4.21996 0.332042
LeftUpLeg  -61.923 3.32259 2.78297
LeftLeg  60.7276 -0.177465 0.255677
LeftFoot  -2.53942 0.322918 -3.99743
LeftToes  2.52163e-011 5.65494e-011 -1.09494e-012
2325
root  40.7633 29.6544 28.9236 11.4944 43.4884 11.4763
RightUpLeg  -40.4326 2.39033 -32.776
RightLeg  81.918 0.732442 4.24193
RightFoot  -30.9029 5.12125 30.2838
RightToes  1.22775e-009 1.2921e-014 -6.02303e-014
Spine  39.1407 1.74275 15.5631
Spine1  6.09978 8.05014 -3.2892
HEad  -12.7933 -18.8123 -11.3171
LeftShoulder1  0.569716 1.28154 -19.078
LeftArm  -21.3849 34.1783 -22.4329
LeftForeArm  -10.022 -15.239 -9.15712
LeftHand  0.0545026 2.15145 -2.42902
RightShoulder  10.6375 31.1745 24.11
RightArm  -27.7698 27.1957 2.91511
RightForeArm  14.843 14.7274 7.79421
RightHand  0.108051 4.11675 1.04528
LeftUpLeg  -60.4716 5.65348 1.89147
LeftLeg  64.301 -0.60023 -0.685751
LeftFoot  -6.00645 0.649628 -13.1275
LeftToes  2.52163e-011 5.65494e-011 -1.09494e-012
2326
root  42.8037 29.8333 29.2161 11.1993 42.4936 11.2676
RightUpLeg  -40.2354 2.64986 -35.2716
RightLeg  83.8471 0.579331 4.08108
RightFoot  -22.7513 3.26098 33.3043
RightToes  1.22775e-009 1.2921e-014 -6.02303e-014
Spine  39.3383 1.69105 14.873
Spine1  6.79906 7.90478 -3.38676
HEad  -13.6256 -19.4818 -9.94569
LeftShoulder1  0.777962 0.642581 -20.7482
LeftArm  -19.2656 27.9882 -29.607
LeftForeArm  -7.03586 -14.175 -10.1054
LeftHand  0.0679297 1.59737 -2.3875
RightShoulder  10.4366 31.0608 23.6119
RightArm  -26.0339 27.7391 3.14044
RightForeArm  14.185 14.5153 8.14279
RightHand  0.123445 4.05329 1.24572
LeftUpLeg  -59.1661 8.73214 -1.70851
LeftLeg  68.2075 -0.989502 -1.93702
LeftFoot  -10.6595 0.115074 -8.61311
LeftToes  2.52163e-011 5.65494e-011 -1.09494e-012
2327
root  45.0795 30.3647 29.4287 11.3099 42.2285 10.1287
RightUpLeg  -42.3995 0.320001 -34.4548
RightLeg  85.7668 0.0774691 -5.31209
RightFoot  -7.62431 -0.863335 24.6297
RightToes  1.22775e-009 1.2921e-014 -6.02303e-014
Spine  38.8271 0.6453 16.1869
Spine1  6.96754 7.362 -3.18315
HEad  -14.6037 -19.3261 -7.60022
LeftShoulder1  1.12364 -0.334941 -22.9675
LeftArm  -13.9261 19.3702 -34.472
LeftForeArm  -0.805374 -12.3174 -11.5073
LeftHand  0.0465234 0.65201 -1.24152
RightShoulder  10.3359 31.0124 23.3521
RightArm  -28.1485 28.608 2.09986
RightForeArm  15.2781 12.4329 9.03967
RightHand  0.159511 3.83062 1.74516
LeftUpLeg  -57.2359 9.21043 -4.01915
LeftLeg  69.9631 -0.798351 -1.56568
LeftFoot  -15.6455 -0.14475 -6.33992
LeftToes  2.52163e-011 5.65494e-011 -1.09494e-012
2328
root  47.1922 30.6848 29.6627 10.993 40.5391 8.56539
RightUpLeg  -46.4999 -3.86449 -30.0115
RightLeg  86.6524 -0.0710042 -14.7413
RightFoot  -0.392839 -0.826175 8.57702
RightToes  1.22775e-009 1.2921e-014 -6.02303e-014
Spine  39.0749 -0.064154 16.7414
Spine1  6.63865 7.09398 -3.21479
HEad  -16.1561 -19.0777 -5.03063
LeftShoulder1  1.38336 -1.20545 -23.0866
LeftArm  -1.59461 12.5205 -39.9128
LeftForeArm  6.17395 -14.035 -10.9065
LeftHand  -0.0955693 0.162491 2.12357
RightShoulder  10.0473 31.686 21.8632
RightArm  -32.0375 29.6508 1.66246
RightForeArm  19.2917 8.94476 9.70109
RightHand  0.173541 3.7709 1.93843
LeftUpLeg  -55.2982 9.66106 -5.44497
LeftLeg  71.7418 -0.221706 0.217642
LeftFoot  -20.3576 -0.243991 -4.64054
LeftToes  2.52163e-011 5.65494e-011 -1.09494e-012
2329
root  49.3216 31.2069 29.8737 10.8351 37.5996 7.0945
RightUpLeg  -50.9371 -9.02598 -22.7195
RightLeg  84.4154 -0.697235 -15.2158
RightFoot  -5.50632 -0.46237 8.32108
RightToes  1.22775e-009 1.2921e-014 -6.02303e-014
Spine  39.4991 -0.786139 17.0268
Spine1  6.76029 6.60404 -2.75228
HEad  -17.9123 -18.1931 -3.17058
LeftShoulder1  1.59499 -1.95869 -22.9071
LeftArm  14.149 10.8484 -42.5945
LeftForeArm  11.6975 -25.0863 -4.75746
LeftHand  -0.288733 -0.620745 5.67908
RightShoulder  9.63974 32.8774 19.6443
RightArm  -33.2661 30.9924 1.53406
RightForeArm  20.5411 7.29294 9.90824
RightHand  0.20581 3.78287 2.34315
LeftUpLeg  -52.4121 10.4796 -7.02846
LeftLeg  71.6724 0.508055 2.70178
LeftFoot  -24.3005 -0.238411 -3.38299
LeftToes  2.52163e-011 5.65494e-011 -1.09494e-012
